# AST/ASF file generated using VICON BodyLanguage
# -----------------------------------------------
:version 1.10
:name VICON
:units
  mass 1.0
  length 0.45
  angle deg
:documentation
   .ast/.asf automatically generated from VICON data using
   VICON BodyBuilder and BodyLanguage model FoxedUp or BRILLIANT.MOD
:root
   order TX TY TZ RX RY RZ
   axis XYZ
   position 0 0 0  
   orientation 0 0 0 
:bonedata
  begin
     id 1 
     name lhipjoint
     direction 0.610259 -0.730986 0.305356 
     length 2.50941 
     axis 0 0 0  XYZ
  end
  begin
     id 2 
     name lfemur
     direction 0.34202 -0.939693 0  
     length 7.48822  
     axis 0 0 20  XYZ
    dof rx ry rz
    limits (-160.0 20.0)
           (-70.0 70.0)
           (-60.0 70.0)
  end
  begin
     id 3 
     name ltibia
     direction 0.34202 -0.939693 0   
     length 7.60141   
     axis 0 0 20   XYZ
    dof rx
    limits (-10.0 170.0)
  end
  begin
     id 4 
     name lfoot
     direction 0.0673488 -0.185039 0.980421   
     length 2.04049   
     axis -90 7.62852e-016 20   XYZ
    dof rx rz
    limits (-45.0 90.0)
           (-70.0 20.0)
  end
  begin
     id 5 
     name ltoes
     direction 1.5356e-011 -4.21729e-011 1   
     length 1.02897   
     axis -90 7.62852e-016 20   XYZ
    dof rx
    limits (-90.0 20.0)
  end
  begin
     id 6 
     name rhipjoint
     direction -0.57612 -0.754205 0.315056   
     length 2.43216  
     axis 0 0 0  XYZ 
  end
  begin
     id 7 
     name rfemur
     direction -0.34202 -0.939693 0   
     length 7.42799   
     axis 0 0 -20   XYZ
    dof rx ry rz
    limits (-160.0 20.0)
           (-70.0 70.0)
           (-70.0 60.0)
  end
  begin
     id 8 
     name rtibia
     direction -0.34202 -0.939693 0   
     length 7.69484   
     axis 0 0 -20   XYZ
    dof rx
    limits (-10.0 170.0)
 end
 begin
     id 9 
     name rfoot
     direction -0.111837 -0.30727 0.945028   
     length 2.15769  
     axis -90 -7.62852e-016 -20   XYZ
    dof rx rz
    limits (-45.0 90.0)
           (-20.0 70.0)
  end
  begin
     id 10 
     name rtoes
     direction -1.53539e-011 -4.21878e-011 1   
     length 1.07391   
     axis -90 -7.62852e-016 -20   XYZ
    dof rx
    limits (-90.0 20.0)
  end
  begin
     id 11 
     name lowerback
     direction 0.00552624 0.990109 -0.140195   
     length 2.12403   
     axis 0 0 0   XYZ
    dof rx ry rz
    limits (-20.0 45.0)
           (-30.0 30.0)
           (-30.0 30.0)
  end
  begin
     id 12 
     name upperback
     direction 0.00361898 0.999976 -0.00584723   
     length 2.13232   
     axis 0 0 0   XYZ
    dof rx ry rz
    limits (-20.0 45.0)
           (-30.0 30.0)
           (-30.0 30.0)
  end
  begin
     id 13 
     name thorax
     direction -0.000331275 0.998253 0.0590847   
     length 2.17688   
     axis 0 0 0   XYZ
    dof rx ry rz
    limits (-20.0 45.0)
           (-30.0 30.0)
           (-30.0 30.0)
  end
  begin
     id 14 
     name lowerneck
     direction -0.0561561 0.979832 0.19177   
     length 1.64159   
     axis 0 0 0   XYZ
    dof rx ry rz
    limits (-20.0 45.0)
           (-30.0 30.0)
           (-30.0 30.0)
  end
  begin
     id 15 
     name upperneck
     direction 0.0827153 0.979385 -0.184293   
     length 1.68939   
     axis 0 0 0   XYZ
    dof rx ry rz
    limits (-20.0 45.0)
           (-30.0 30.0)
           (-30.0 30.0)
  end
  begin
     id 16
     name head
     direction 0.0278583 0.995936 -0.0856488  
     length 1.70207  
     axis 0 0 0   XYZ
    dof rx ry rz
    limits (-20.0 45.0)
           (-30.0 30.0)
           (-30.0 30.0)
  end
  begin
     id 17 
     name lclavicle
     direction 0.950993 0.301131 -0.0702275  
     length 3.41652  
     axis 0 0 0   XYZ
    dof ry rz
    limits (-20.0 10.0)
           (0.0 20.0)
  end
  begin
     id 18 
     name lhumerus
     direction 1 -4.48981e-011 -3.9662e-029   
     length 5.32955   
     axis 180 -30 -90   XYZ
    dof rx ry rz
    limits (-60.0 90.0)
           (-90.0 90.0)
           (-90.0 90.0)
  end
  begin
     id 19
     name lradius
     direction 1 -4.48925e-011 -9.0549e-027   
     length 3.69232   
     axis 180 -30 -90   XYZ
    dof rx
    limits (-10.0 170.0)
  end
  begin
     id 20
     name lwrist
     direction 1 -4.49007e-011 -1.49005e-026   
     length 1.84616   
     axis 9.0955e-015 90 90   XYZ
    dof ry
    limits (-180.0 0.0)
 end
  begin
     id 21 
     name lhand
     direction 1 -4.49016e-011 -2.98023e-026   
     length 0.536598   
     axis 1.90115e-014 90 90   XYZ
    dof rx rz
    limits (-90.0 90.0)
           (-45.0 45.0)
  end
  begin
     id 22 
     name lfingers
     direction 1 -4.48924e-011 -5.9578e-026   
     length 0.432619   
     axis 3.80223e-014 90 90   XYZ
    dof rx
    limits (0.0 90.0)
  end
  begin
     id 23
     name lthumb
     direction 0.707107 -6.34947e-011 0.707107   
     length 0.621157   
     axis -90 45 -3.84942e-014   XYZ
    dof rx rz
    limits (-45.0 45.0)
           (-45.0 45.0)
  end
  begin
     id 24 
     name rclavicle
     direction -0.955495 0.276497 -0.102848   
     length 3.36357  
     axis 0 0 0   XYZ 
    dof ry rz
    limits (-10.0 20.0)
           (-20.0 0.0)
  end
  begin
     id 25 
     name rhumerus
     direction -1 -4.48961e-011 3.30983e-027  
     length 5.23431   
     axis 180 30 90   XYZ
    dof rx ry rz
    limits (-90.0 60.0)
           (-90.0 90.0)
           (-90.0 90.0)
  end
  begin
     id 26 
     name rradius
     direction -1 -4.48965e-011 -6.63263e-027   
     length 3.55301   
     axis 180 30 90   XYZ
    dof rx
    limits (-10.0 170.0)
  end
  begin
     id 27 
     name rwrist
     direction -1 -4.48942e-011 -1.48958e-026   
     length 1.77651   
     axis 9.0955e-015 -90 -90   XYZ
    dof ry
    limits (-180.0 0.0)
  end
  begin
     id 28
     name rhand
     direction -1 -4.48977e-011 -2.97966e-026   
     length 0.772522   
     axis 1.90115e-014 -90 -90   XYZ
    dof rx rz
    limits (-90.0 90.0)
           (-45.0 45.0)
  end
  begin
     id 29
     name rfingers
     direction -1 -4.49135e-011 -5.96389e-026   
     length 0.622827   
     axis 3.80223e-014 -90 -90   XYZ
    dof rx
    limits (0.0 90.0)
  end
  begin
     id 30
     name rthumb
     direction -0.707107 -6.34969e-011 0.707107   
     length 0.894259   
     axis -90 -45 3.84942e-014   XYZ
    dof rx rz
    limits (-45.0 45.0)
           (-45.0 45.0)
  end
:hierarchy
  begin
    root lhipjoint rhipjoint lowerback
    lhipjoint lfemur
    lfemur ltibia
    ltibia lfoot
    lfoot ltoes
    rhipjoint rfemur
    rfemur rtibia
    rtibia rfoot
    rfoot rtoes
    lowerback upperback
    upperback thorax
    thorax lowerneck lclavicle rclavicle
    lowerneck upperneck
    upperneck head
    lclavicle lhumerus
    lhumerus lradius
    lradius lwrist
    lwrist lhand lthumb
    lhand lfingers
    rclavicle rhumerus
    rhumerus rradius
    rradius rwrist
    rwrist rhand rthumb
    rhand rfingers
  end

#!OML:ASF F:\VICON\USERDATA\INSTALL\rory3\rory3.ASF
:FULLY-SPECIFIED
:DEGREES
157
root 7.84604 17.7432 -10.3116 -2.72629 -5.08991 -1.24767
lowerback 12.3038 1.16085 1.91499
upperback 0.104536 1.89118 1.10277
thorax -6.77591 0.878451 -0.255594
lowerneck -21.3167 -7.16568 -12.4355
upperneck 27.8634 -8.98525 9.50886
head 14.1391 -3.97309 4.24102
rclavicle 5.10628e-015 -3.18055e-015
rhumerus -31.9671 -12.3907 -74.731
rradius 31.2851
rwrist 4.82867
rhand -20.0631 9.10495
rfingers 7.12502
rthumb 6.27887 -20.782
lclavicle 5.10628e-015 -3.18055e-015
lhumerus -34.887 13.2569 77.0199
lradius 31.0201
lwrist -6.42245
lhand -18.3052 25.0916
lfingers 7.12502
lthumb 7.97575 54.9212
rfemur -6.96267 1.56171 21.0994
rtibia 31.4489
rfoot -17.2295 -2.41758
rtoes -5.68873
lfemur -11.5893 -0.175969 -20.6811
ltibia 40.8954
lfoot -15.7131 -15.2697
ltoes -9.34358
158
root 7.80397 17.7212 -10.2828 -2.83562 -5.46395 -1.36552
lowerback 11.977 1.24702 2.04496
upperback 0.215059 2.01487 1.15131
thorax -6.46983 0.939687 -0.289966
lowerneck -21.2691 -7.12228 -12.3692
upperneck 27.8005 -8.94187 9.49438
head 14.0904 -3.95039 4.23116
rclavicle 9.24349e-015 1.43125e-014
rhumerus -32.0289 -12.257 -74.5442
rradius 31.2526
rwrist 4.82015
rhand -20.3836 8.41727
rfingers 7.12502
rthumb 5.96948 -21.4786
lclavicle 9.24349e-015 1.43125e-014
lhumerus -34.976 13.4995 76.9926
lradius 31.0639
lwrist -6.50275
lhand -18.657 24.7729
lfingers 7.12502
lthumb 7.63624 54.615
rfemur -6.98083 1.46374 21.2936
rtibia 31.861
rfoot -17.6221 -1.9057
rtoes -6.3427
lfemur -11.1175 0.236962 -21.0896
ltibia 40.2539
lfoot -15.4996 -15.8475
ltoes -7.48184
159
root 7.7543 17.7019 -10.2805 -2.82224 -5.31899 -1.46316
lowerback 11.9161 1.18223 2.02377
upperback 0.232236 1.92772 1.21224
thorax -6.42175 0.899365 -0.197336
lowerneck -21.4221 -7.13037 -12.4017
upperneck 27.8267 -8.97632 9.64582
head 14.1507 -3.94445 4.29159
rclavicle -4.53478e-015 3.97569e-016
rhumerus -31.9295 -12.3238 -74.323
rradius 31.0599
rwrist 5.03148
rhand -20.4488 7.99029
rfingers 7.12502
rthumb 5.9065 -21.9074
lclavicle -4.53478e-015 3.97569e-016
lhumerus -34.8758 13.5923 77.0279
lradius 30.9709
lwrist -6.5047
lhand -18.7304 25.046
lfingers 7.12502
lthumb 7.56536 54.8907
rfemur -7.08391 1.18948 21.5064
rtibia 32.1785
rfoot -17.9814 -1.57505
rtoes -6.09715
lfemur -10.9047 0.159283 -21.4259
ltibia 39.5745
lfoot -14.8055 -16.7698
ltoes -2.99749
160
root 7.69495 17.6864 -10.305 -2.66394 -4.77536 -1.58856
lowerback 12.0942 1.01552 1.90617
upperback 0.121788 1.70195 1.26771
thorax -6.64802 0.790717 -0.0387268
lowerneck -21.5774 -7.13382 -12.3296
upperneck 27.8139 -9.03457 9.78255
head 14.1909 -3.93901 4.3221
rclavicle -1.27471e-014 -3.57812e-015
rhumerus -31.8067 -12.6338 -74.0708
rradius 30.7322
rwrist 5.41975
rhand -20.3215 8.15507
rfingers 7.12502
rthumb 6.02942 -21.7391
lclavicle -1.27471e-014 -3.57812e-015
lhumerus -34.7891 13.5464 77.0412
lradius 30.9136
lwrist -6.4843
lhand -18.4258 25.4461
lfingers 7.12502
lthumb 7.85941 55.28
rfemur -7.35393 0.871078 21.8249
rtibia 32.4398
rfoot -18.2759 -1.53773
rtoes -6.02578
lfemur -10.9668 -0.187644 -21.6175
ltibia 38.9536
lfoot -14.0908 -17.3401
ltoes 1.34391
161
root 7.64602 17.677 -10.3049 -2.67459 -4.81994 -1.79941
lowerback 12.1161 1.0048 1.94445
upperback 0.120063 1.69924 1.34799
thorax -6.66375 0.789304 0.0243315
lowerneck -21.5885 -7.11816 -12.2258
upperneck 27.7399 -9.04766 9.7966
head 14.1575 -3.93111 4.3049
rclavicle -3.57812e-015 -4.37326e-015
rhumerus -31.7427 -12.8339 -73.8485
rradius 30.4378
rwrist 5.77017
rhand -20.232 8.48972
rfingers 7.12502
rthumb 6.11583 -21.402
lclavicle -3.57812e-015 -4.37326e-015
lhumerus -34.8616 13.422 77.0833
lradius 31.0243
lwrist -6.2407
lhand -18.3698 25.9824
lfingers 7.12502
lthumb 7.9134 55.8143
rfemur -7.42091 0.852739 22.1797
rtibia 32.7005
rfoot -18.4779 -1.26954
rtoes -5.48657
lfemur -10.6536 -0.431142 -21.6903
ltibia 38.4167
lfoot -14.0118 -16.2158
ltoes 3.61239
